<svg width="24" height="24" viewBox="0 0 24 24" fill="none" xmlns="http://www.w3.org/2000/svg">
<path d="M16.317 3.9231C17.625 3.9231 18.7327 4.42443 19.64 5.4271C20.5473 6.42976 21.0007 7.63976 21 9.0571C21 9.38376 20.9737 9.70876 20.921 10.0321C20.8683 10.3554 20.7813 10.6781 20.66 11.0001H15.525L13.825 8.4501C13.7417 8.31676 13.625 8.20843 13.475 8.1251C13.325 8.04176 13.1667 8.0001 13 8.0001C12.7833 8.0001 12.5877 8.06676 12.413 8.2001C12.2383 8.33343 12.1173 8.5001 12.05 8.7001L10.7 12.7501L9.825 11.4501C9.74167 11.3168 9.625 11.2084 9.475 11.1251C9.325 11.0418 9.16667 11.0001 9 11.0001H3.34C3.21867 10.6914 3.13167 10.3751 3.079 10.0511C3.02633 9.7271 3 9.40443 3 9.0831C3 7.64776 3.44933 6.4291 4.348 5.4271C5.24667 4.4251 6.35 3.92376 7.658 3.9231C8.342 3.9231 9 4.06243 9.632 4.3411C10.2633 4.6191 10.8283 5.0221 11.327 5.5501L12 6.2621L12.635 5.5891C13.1423 5.04776 13.715 4.63476 14.353 4.3501C14.991 4.06543 15.6457 3.9231 16.317 3.9231ZM12 20.0191C11.8413 20.0191 11.682 19.9874 11.522 19.9241C11.362 19.8608 11.2253 19.7654 11.112 19.6381L4.796 13.2981C4.74733 13.2494 4.70067 13.2008 4.656 13.1521C4.61133 13.1034 4.566 13.0528 4.52 13.0001H8.45L10.15 15.5501C10.2333 15.6834 10.35 15.7918 10.5 15.8751C10.65 15.9584 10.8083 16.0001 10.975 16.0001C11.1917 16.0001 11.3917 15.9334 11.575 15.8001C11.7583 15.6668 11.8833 15.5001 11.95 15.3001L13.3 11.2501L14.15 12.5501C14.25 12.6834 14.375 12.7918 14.525 12.8751C14.675 12.9584 14.8333 13.0001 15 13.0001H19.473L19.339 13.1461L19.204 13.2921L12.864 19.6391C12.7367 19.7658 12.6007 19.8608 12.456 19.9241C12.3113 19.9874 12.1593 20.0191 12 20.0191Z" fill="white"/>
</svg>
