<svg width="18" height="18" viewBox="0 0 18 18" fill="none" xmlns="http://www.w3.org/2000/svg">
<g clip-path="url(#clip0_504_747)">
<path d="M16.4249 14.065L16.2549 13.915C15.7727 13.4851 15.3506 12.9924 14.9999 12.45C14.6166 11.7014 14.3871 10.8836 14.3249 10.045V7.57495C14.3282 6.25776 13.8504 4.98469 12.9813 3.99494C12.1121 3.00519 10.9115 2.36688 9.6049 2.19995V1.55495C9.6049 1.37792 9.53458 1.20814 9.4094 1.08296C9.28421 0.957777 9.11443 0.887451 8.9374 0.887451C8.76037 0.887451 8.59059 0.957777 8.46541 1.08296C8.34023 1.20814 8.2699 1.37792 8.2699 1.55495V2.20995C6.97503 2.38891 5.78889 3.03108 4.93117 4.0175C4.07345 5.00393 3.60227 6.26777 3.6049 7.57495V10.045C3.54268 10.8836 3.31317 11.7014 2.9299 12.45C2.58534 12.9911 2.17 13.4838 1.6949 13.915L1.5249 14.065V15.475H16.4249V14.065Z" fill="white"/>
<path d="M7.65991 16C7.70376 16.3169 7.86081 16.6073 8.10206 16.8175C8.3433 17.0276 8.65245 17.1434 8.97241 17.1434C9.29237 17.1434 9.60152 17.0276 9.84277 16.8175C10.084 16.6073 10.2411 16.3169 10.2849 16H7.65991Z" fill="white"/>
</g>
<defs>
<clipPath id="clip0_504_747">
<rect width="18" height="18" fill="white"/>
</clipPath>
</defs>
</svg>
